<?xml version="1.0" encoding="UTF-8" standalone="no"?>
<!-- Created with Inkscape (http://www.inkscape.org/) -->

<svg
   width="188.2265mm"
   height="184.37657mm"
   viewBox="0 0 188.2265 184.37657"
   version="1.1"
   id="svg5"
   inkscape:version="1.1.2 (0a00cf5339, 2022-02-04)"
   sodipodi:docname="EPFL-WP-Operator-logo.svg"
   xmlns:inkscape="http://www.inkscape.org/namespaces/inkscape"
   xmlns:sodipodi="http://sodipodi.sourceforge.net/DTD/sodipodi-0.dtd"
   xmlns="http://www.w3.org/2000/svg"
   xmlns:svg="http://www.w3.org/2000/svg">
  <sodipodi:namedview
     id="namedview7"
     pagecolor="#ffffff"
     bordercolor="#666666"
     borderopacity="1.0"
     inkscape:pageshadow="2"
     inkscape:pageopacity="0.0"
     inkscape:pagecheckerboard="0"
     inkscape:document-units="mm"
     showgrid="false"
     fit-margin-top="10"
     fit-margin-left="10"
     fit-margin-right="10"
     fit-margin-bottom="10"
     inkscape:zoom="0.5334538"
     inkscape:cx="47.801702"
     inkscape:cy="445.21193"
     inkscape:window-width="1874"
     inkscape:window-height="1136"
     inkscape:window-x="46"
     inkscape:window-y="27"
     inkscape:window-maximized="1"
     inkscape:current-layer="layer1" />
  <defs
     id="defs2" />
  <g
     inkscape:label="Layer 1"
     inkscape:groupmode="layer"
     id="layer1"
     transform="translate(-9.9942893,-2.6946005)">
    <path
       sodipodi:type="star"
       style="fill:#ffffff;stroke:#000000;stroke-width:15.1181;stroke-linecap:round"
       id="path870"
       inkscape:flatsided="true"
       sodipodi:sides="7"
       sodipodi:cx="129.70325"
       sodipodi:cy="342.00098"
       sodipodi:r1="317.70978"
       sodipodi:r2="286.24661"
       sodipodi:arg1="-1.5609695"
       sodipodi:arg2="-1.1121706"
       inkscape:rounded="0"
       inkscape:randomized="0"
       d="M 132.82528,24.306539 380.03331,146.36263 438.73771,415.73839 264.73285,629.58837 -10.952054,626.87918 -180.72064,409.65089 -116.73371,141.48083 Z"
       transform="matrix(0.26458333,0,0,0.26458333,69.978884,8.4832194)"
       inkscape:transform-center-x="0.18381072"
       inkscape:transform-center-y="-3.982912" />
    <g
       id="g4062"
       transform="matrix(1.0851262,0,0,1.0851262,-10.490563,-66.031808)">
      <path
         inkscape:connector-curvature="0"
         id="path3059"
         d="m 104.99613,81.910797 c -2.13703,2.1e-4 -3.86979,1.92508 -3.86953,4.29948 0,0.0364 0.008,0.0713 0.008,0.10748 -0.003,0.32263 -0.0187,0.7113 -0.008,0.99219 0.051,1.36948 0.34948,2.41763 0.52916,3.67936 0.32551,2.70051 0.59827,4.93907 0.42995,7.01973 -0.16369,0.78459 -0.7416,1.50215 -1.25677,2.000913 l -0.091,1.63711 c -2.322198,0.1924 -4.659938,0.54471 -6.994928,1.07487 -10.04745,2.28128 -18.69812,7.45677 -25.284241,14.4446 -0.42736,-0.29156 -1.175022,-0.82792 -1.397344,-0.99219 -0.690872,0.0933 -1.389118,0.30646 -2.298568,-0.22324 -1.731674,-1.16566 -3.308844,-2.77467 -5.217252,-4.71289 -0.874443,-0.92715 -1.507681,-1.81002 -2.546615,-2.70372 -0.235934,-0.20295 -0.595995,-0.47745 -0.859895,-0.68626 -0.81224,-0.64758 -1.770248,-0.98531 -2.695443,-1.01699 -1.189538,-0.0407 -2.334668,0.42435 -3.08405,1.36426 -1.332232,1.67094 -0.9057,4.22488 0.950847,5.70508 0.01884,0.015 0.0389,0.0267 0.05788,0.0413 0.255117,0.2068 0.567521,0.47178 0.802019,0.64492 1.102484,0.814 2.109575,1.23069 3.208072,1.87689 2.314311,1.42923 4.232902,2.61431 5.754688,4.04316 0.594259,0.63346 0.698124,1.74967 0.777213,2.23242 l 1.240235,1.10794 c -6.639301,9.99164 -9.712023,22.33334 -7.896146,34.90847 l -1.620573,0.47129 c -0.427116,0.55155 -1.03066,1.41942 -1.661927,1.67845 -1.991024,0.62712 -4.231809,0.8574 -6.937044,1.14101 -1.270082,0.10561 -2.365952,0.0426 -3.712435,0.29766 -0.296354,0.0561 -0.709273,0.16372 -1.033528,0.23978 -0.01127,0.002 -0.0218,0.006 -0.03307,0.008 -0.01767,0.004 -0.04089,0.0127 -0.05788,0.0165 -2.280746,0.55107 -3.745902,2.64742 -3.274219,4.71289 0.471794,2.06595 2.699581,3.32231 4.99401,2.82773 0.01656,-0.004 0.04061,-0.004 0.05788,-0.008 0.0259,-0.006 0.04871,-0.0185 0.07441,-0.0248 0.319842,-0.0702 0.720665,-0.14833 1.000456,-0.22324 1.3238,-0.35445 2.282545,-0.87524 3.472656,-1.33119 2.560357,-0.91831 4.680937,-1.68545 6.746875,-1.98437 0.862854,-0.0676 1.771944,0.53238 2.224154,0.78548 l 1.686718,-0.28939 c 3.881485,12.034 12.01583,21.76066 22.315947,27.86393 l -0.7028,1.68672 c 0.25332,0.65495 0.53272,1.54112 0.34402,2.18792 -0.75107,1.94766 -2.03755,4.00341 -3.50248,6.29528 -0.70931,1.05884 -1.43524,1.88056 -2.07533,3.09232 -0.15316,0.28996 -0.34823,0.73536 -0.49609,1.0418 -0.99453,2.12787 -0.26502,4.57867 1.64538,5.49837 1.92239,0.92548 4.3086,-0.0506 5.34127,-2.18281 0.002,-0.003 0.007,-0.005 0.008,-0.008 10e-4,-0.002 -0.001,-0.006 0,-0.008 0.14709,-0.3023 0.35548,-0.69966 0.47956,-0.98392 0.54825,-1.25598 0.73068,-2.33232 1.11621,-3.54707 1.02384,-2.57179 1.58636,-5.27025 2.99577,-6.95169 0.38594,-0.46044 1.01515,-0.63752 1.66751,-0.81218 l 0.87644,-1.5875 c 8.97949,3.44668 19.030598,4.37157 29.071098,2.09186 2.29049,-0.52005 4.50173,-1.19312 6.63938,-2.00091 0.24633,0.43692 0.70409,1.2768 0.82683,1.48828 0.66293,0.21569 1.38653,0.32706 1.9761,1.1989 1.05447,1.80154 1.7756,3.9328 2.6541,6.50709 0.3856,1.21473 0.57617,2.29112 1.12448,3.54707 0.12498,0.28627 0.33232,0.6892 0.47956,0.99219 1.03051,2.13911 3.42427,3.11856 5.34955,2.19108 1.91016,-0.92019 2.64047,-3.37076 1.64537,-5.49837 -0.14787,-0.30643 -0.35118,-0.75185 -0.50436,-1.0418 -0.64015,-1.21173 -1.36596,-2.02525 -2.07532,-3.08405 -1.46506,-2.2918 -2.68015,-4.19568 -3.43132,-6.14329 -0.31409,-1.00451 0.053,-1.62924 0.29766,-2.28203 -0.14652,-0.16795 -0.46006,-1.11657 -0.64493,-1.5627 10.70436,-6.32041 18.59983,-16.4098 22.30769,-28.06237 0.5007,0.0787 1.37095,0.23267 1.65365,0.28939 0.58196,-0.38383 1.11705,-0.88464 2.16627,-0.80202 2.06595,0.29881 4.18647,1.0662 6.74688,1.98438 1.19013,0.45589 2.14884,0.98507 3.47265,1.33945 0.2798,0.0749 0.68061,0.14478 1.00046,0.21497 0.0257,0.006 0.0485,0.0189 0.0744,0.0248 0.0173,0.004 0.0413,0.004 0.0579,0.008 2.29456,0.49396 4.52274,-0.76166 4.99401,-2.82773 0.47115,-2.0656 -0.99333,-4.16243 -3.27422,-4.71289 -0.33177,-0.0754 -0.80228,-0.20357 -1.12448,-0.26459 -1.34649,-0.255 -2.44235,-0.19211 -3.71243,-0.29765 -2.70525,-0.28347 -4.94599,-0.51401 -6.93705,-1.14102 -0.81181,-0.31493 -1.38933,-1.28091 -1.67019,-1.67845 l -1.5627,-0.45475 c 0.81023,-5.86169 0.59176,-11.96217 -0.81028,-18.06608 -1.4151,-6.16075 -3.91594,-11.79535 -7.25124,-16.7597 0.40086,-0.36441 1.15787,-1.03477 1.37252,-1.23197 0.0627,-0.69431 0.009,-1.42228 0.72761,-2.19108 1.52171,-1.42893 3.44045,-2.61381 5.75469,-4.04316 1.09846,-0.64625 2.1139,-1.06283 3.21634,-1.87689 0.2493,-0.18409 0.58973,-0.47562 0.85163,-0.68627 1.85615,-1.48069 2.2835,-4.03447 0.95084,-5.70507 -1.33266,-1.6706 -3.91507,-1.82797 -5.77122,-0.34727 -0.2642,0.20925 -0.62271,0.48221 -0.8599,0.68626 -1.03888,0.89376 -1.68049,1.77652 -2.55488,2.70371 -1.90831,1.93833 -3.48564,3.55541 -5.21725,4.72116 -0.75036,0.43685 -1.84943,0.2857 -2.34819,0.25632 l -1.47175,1.05006 c -8.39227,-8.80019 -19.81853,-14.42652 -32.12202,-15.51948 -0.0344,-0.51559 -0.0795,-1.44758 -0.091,-1.728063 -0.50369,-0.48197 -1.11215,-0.89346 -1.26504,-1.93476 -0.16832,-2.08066 0.11271,-4.31922 0.43822,-7.01973 0.17968,-1.26173 0.4782,-2.30988 0.52917,-3.67936 0.0116,-0.31132 -0.007,-0.76306 -0.008,-1.09967 -2.6e-4,-2.3744 -1.73251,-4.2997 -3.86953,-4.29948 z m -4.84519,30.013673 -1.149278,20.2985 -0.0827,0.0413 c -0.0771,1.81593 -1.57161,3.26595 -3.40651,3.26595 -0.75164,0 -1.44541,-0.24137 -2.00918,-0.65319 l -0.0331,0.0165 -16.64395,-11.79876 c 5.11536,-5.03004 11.65831,-8.74723 19.19883,-10.45931 1.37742,-0.31275 2.75423,-0.54481 4.125848,-0.71107 z m 9.69864,0 c 8.8036,1.08276 16.94524,5.0691 23.18411,11.17864 l -16.53646,11.72435 -0.0579,-0.0248 c -1.46776,1.07201 -3.53574,0.80603 -4.67981,-0.62838 -0.46867,-0.58763 -0.71457,-1.27857 -0.74414,-1.97611 l -0.0165,-0.008 z m -39.059119,18.75234 15.197001,13.59297 -0.0165,0.0827 c 1.3717,1.19247 1.57398,3.26177 0.42995,4.69636 -0.46863,0.58765 -1.09592,0.9818 -1.7694,1.16582 l -0.0165,0.0661 -19.479947,5.6224 c -0.991468,-9.06599 1.145262,-17.87886 5.655469,-25.22637 z m 68.303839,0.008 c 2.25799,3.65986 3.96784,7.74756 4.98575,12.1791 1.00569,4.3784 1.25809,8.74897 0.84336,12.97285 l -19.57917,-5.63893 -0.0165,-0.0827 c -1.75326,-0.47918 -2.83076,-2.26262 -2.42259,-4.05144 0.16722,-0.73279 0.55621,-1.35272 1.08313,-1.81074 l -0.008,-0.0413 15.11433,-13.52682 z m -37.2153,14.63476 h 6.22598 l 3.86953,4.83692 -1.38906,6.0358 -5.58932,2.68718 -5.605858,-2.69544 -1.38906,-6.03581 z m 19.95951,16.553 c 0.26457,-0.0134 0.528,0.0105 0.78548,0.0579 l 0.0331,-0.0413 20.14968,3.40651 c -2.94891,8.28493 -8.59177,15.4623 -16.13132,20.26543 l -7.82174,-18.8929 0.0248,-0.0331 c -0.71851,-1.66952 5.2e-4,-3.62732 1.65364,-4.42351 0.42324,-0.20383 0.86542,-0.3167 1.30638,-0.33899 z m -33.841868,0.0827 c 1.53769,0.0216 2.91693,1.08883 3.27422,2.6541 0.16727,0.73279 0.0859,1.45885 -0.19017,2.10013 l 0.0579,0.0744 -7.73906,18.70274 c -7.23561,-4.64282 -12.998788,-11.59486 -16.081708,-20.12461 l 19.976038,-3.38997 0.0331,0.0413 c 0.22345,-0.0411 0.45006,-0.061 0.66973,-0.0579 z m 16.875458,8.19383 c 0.53564,-0.0197 1.07915,0.0902 1.59577,0.33899 0.67721,0.32611 1.20034,0.83958 1.52962,1.45521 h 0.0744 l 9.84746,17.79323 c -1.27801,0.42842 -2.59188,0.79457 -3.93567,1.09968 -7.53124,1.70997 -15.038548,1.19186 -21.836398,-1.12448 l 9.822658,-17.76016 h 0.0165 c 0.5894,-1.10183 1.70722,-1.75918 2.88561,-1.80247 z"
         style="color:#000000;font-style:normal;font-variant:normal;font-weight:normal;font-stretch:normal;font-size:medium;line-height:normal;font-family:Sans;-inkscape-font-specification:Sans;text-indent:0;text-align:start;text-decoration:none;text-decoration-line:none;letter-spacing:normal;word-spacing:normal;text-transform:none;writing-mode:lr-tb;direction:ltr;baseline-shift:baseline;text-anchor:start;display:inline;overflow:visible;visibility:visible;fill:#21759b;fill-opacity:1;stroke:#ffffff;stroke-width:0.0661458;stroke-miterlimit:4;stroke-dasharray:none;stroke-opacity:1;marker:none;enable-background:accumulate"
         sodipodi:nodetypes="ccccccccsccccscssccsccccccccscccsccccccccccccccscccscsccsccccscscsccccccccscccscsccccsccccscscscccccccccccccccscccsccccccccccccscccccscccccccccccccccccccccccscccscccccccccscccscccc"
         inkscape:export-filename="./path3059.png"
         inkscape:export-xdpi="250.55"
         inkscape:export-ydpi="250.55" />
      <circle
         style="fill:#21759b;fill-opacity:1;stroke:none;stroke-width:3.601;stroke-linecap:round;stroke-miterlimit:4;stroke-dasharray:none"
         id="path3832"
         cx="105"
         cy="151.67496"
         r="44.160049" />
    </g>
    <g
       id="g4471"
       transform="matrix(0.90176575,0,0,0.90176575,189.54039,72.195265)">
      <circle
         style="fill:#ffffff;fill-opacity:1;stroke:none;stroke-width:2.84217;stroke-linecap:round;stroke-miterlimit:4;stroke-dasharray:none"
         id="path4223"
         cx="-95.471252"
         cy="28.432602"
         r="53.650036" />
      <g
         fill="#21759b"
         id="g1385"
         transform="matrix(0.97912915,0,0,0.97912915,-155.45613,-31.550318)">
        <path
           d="m 8.708,61.26 c 0,20.802 12.089,38.779 29.619,47.298 L 13.258,39.872 c -2.916,6.536 -4.55,13.769 -4.55,21.388 z"
           id="path1375" />
        <path
           d="m 96.74,58.608 c 0,-6.495 -2.333,-10.993 -4.334,-14.494 -2.664,-4.329 -5.161,-7.995 -5.161,-12.324 0,-4.831 3.664,-9.328 8.825,-9.328 0.233,0 0.454,0.029 0.681,0.042 C 87.401,13.938 74.944,8.708 61.262,8.708 c -18.36,0 -34.513,9.42 -43.91,23.688 1.233,0.037 2.395,0.063 3.382,0.063 5.497,0 14.006,-0.667 14.006,-0.667 2.833,-0.167 3.167,3.994 0.337,4.329 0,0 -2.847,0.335 -6.015,0.501 L 48.2,93.547 59.701,59.054 51.513,36.62 c -2.83,-0.166 -5.511,-0.501 -5.511,-0.501 -2.832,-0.166 -2.5,-4.496 0.332,-4.329 0,0 8.679,0.667 13.843,0.667 5.496,0 14.006,-0.667 14.006,-0.667 2.835,-0.167 3.168,3.994 0.337,4.329 0,0 -2.853,0.335 -6.015,0.501 l 18.992,56.494 5.242,-17.517 c 2.272,-7.269 4.001,-12.49 4.001,-16.989 z"
           id="path1377" />
        <path
           d="m 62.184,65.857 -15.768,45.819 c 4.708,1.384 9.687,2.141 14.846,2.141 6.12,0 11.989,-1.058 17.452,-2.979 -0.141,-0.225 -0.269,-0.464 -0.374,-0.724 z"
           id="path1379" />
        <path
           d="m 107.376,36.046 c 0.226,1.674 0.354,3.471 0.354,5.404 0,5.333 -0.996,11.328 -3.996,18.824 l -16.053,46.413 c 15.624,-9.111 26.133,-26.038 26.133,-45.426 0.001,-9.137 -2.333,-17.729 -6.438,-25.215 z"
           id="path1381" />
        <path
           d="M 61.262,0 C 27.483,0 0,27.481 0,61.26 c 0,33.783 27.483,61.263 61.262,61.263 33.778,0 61.265,-27.48 61.265,-61.263 C 122.526,27.481 95.04,0 61.262,0 Z m 0,119.715 c -32.23,0 -58.453,-26.223 -58.453,-58.455 0,-32.23 26.222,-58.451 58.453,-58.451 32.229,0 58.45,26.221 58.45,58.451 0,32.232 -26.221,58.455 -58.45,58.455 z"
           id="path1383" />
      </g>
    </g>
  </g>
</svg>
